<?xml version="1.0" encoding="UTF-8"?>
<svg clip-rule="evenodd" fill-rule="evenodd" stroke-linejoin="round" stroke-miterlimit="2" version="1.1" viewBox="0 0 32 32" xml:space="preserve" xmlns="http://www.w3.org/2000/svg"><path d="m31 11.552-11.595 5.135c-0.132 0.058-0.269 0.086-0.405 0.086v1.239c0 0.553-0.448 1-1 1h-4c-0.552 0-1-0.447-1-1v-1.243c-0.136 0-0.274-0.028-0.406-0.086l-11.594-5.131v12.448c-0 0.796 0.316 1.559 0.879 2.121 0.562 0.563 1.325 0.879 2.121 0.879h24c0.796 0 1.559-0.316 2.121-0.879 0.563-0.562 0.879-1.325 0.879-2.121v-12.448zm-14 2.448v3.012h-2v-3.012h2zm-10-9h-3c-0.796-0-1.559 0.316-2.121 0.879-0.563 0.562-0.879 1.325-0.879 2.121v1.365l12 5.311v-1.676c0-0.552 0.448-1 1-1h4c0.552-0 1 0.448 1 1v1.679l12-5.315v-1.364c0-0.796-0.316-1.559-0.879-2.121-0.562-0.563-1.325-0.879-2.121-0.879h-3v-1c0-1.657-1.343-3-3-3h-12c-1.657 0-3 1.343-3 3v1zm16-0h-14v-1c-0-0.552 0.448-1 1-1h12c0.552 0 1 0.448 1 1v1z"/></svg>
